PathFileType	4	(X/Y/Z)	D:\TRACE\spotREDO_2-26-24\spot_justBody_Motion_3_5-v60.trc
DataRate	CameraRate	NumFrames	NumMarkers	Units	OrigDataRate	OrigDataStartFrame	OrigNumFrames
100.00	100.00	      28	9	mm	100.00	2626	      7000
Frame#	Time	front left toe			Front right toe			aft left toe			aft right toe			Arm			FL body			FR body			AL Body			AR Body			
		X1	Y1	Z1	X2	Y2	Z2	X3	Y3	Z3	X4	Y4	Z4	X5	Y5	Z5	X6	Y6	Z6	X7	Y7	Z7	X8	Y8	Z8	X9	Y9	Z9	

2626	26.250	-236.10078	17.36369	-92.42370	233.62123	16.88246	-131.66017	-204.76929	33.76818	351.76819	259.37122	35.09377	310.69287	0.76600	816.51282	-295.52576	-86.44572	558.49219	-267.57568	69.41314	559.63208	-282.21848	-10.99375	559.50726	613.34589	130.27272	560.61578	602.35242	
2627	26.260	-236.24344	17.32559	-92.53286	233.53572	16.70749	-131.72258	-204.75885	34.01758	351.62250	259.37332	35.24323	310.59500	1.37599	816.24268	-295.20828	-85.78076	558.18408	-266.83078	70.08582	559.38007	-281.46603	-10.48500	560.11218	614.03564	130.47800	561.34070	602.86493	
2628	26.270	-236.38492	17.09068	-92.66177	233.47530	16.49720	-131.85326	-204.95871	34.38884	351.42740	259.29688	35.50284	310.45947	2.23048	815.77124	-294.64957	-85.46252	557.94989	-266.00616	70.40814	559.32959	-281.38959	-9.85886	560.57043	614.57788	131.18166	562.02161	603.69702	
2629	26.280	-236.26477	19.87493	-92.22183	233.17899	16.08334	-131.80035	-204.96112	34.06339	351.73956	259.27042	35.71558	310.53952	2.42765	815.51276	-294.46823	-84.97487	557.66772	-265.58517	71.26317	559.05658	-280.19543	-9.24327	561.08661	615.20380	131.74612	562.59778	604.12158	
2630	26.290	-234.85091	28.41170	-89.15370	233.30466	15.76563	-131.59386	-205.14320	34.28259	351.20834	259.33221	35.63367	310.51016	2.28181	815.34271	-294.08508	-83.83831	556.97235	-265.07971	72.13403	558.82959	-279.66891	-9.16523	561.34161	615.77863	132.12827	563.10748	604.76501	
2631	26.300	-232.07906	39.62338	-85.16974	233.31717	15.44762	-131.81104	-205.02469	34.65899	351.08896	259.28333	35.94296	310.35306	1.80852	814.92657	-293.82617	-83.09483	556.31317	-264.86813	72.64085	558.73810	-279.32651	-9.05936	561.79730	616.26471	131.31560	564.14636	605.20313	
2632	26.310	-233.57213	51.73206	-83.48220	233.12865	15.35997	-131.81239	-204.89891	35.06884	351.01706	259.31927	36.33863	310.47659	1.32341	814.51636	-293.62473	-82.48209	555.73297	-264.79041	73.59944	558.55231	-278.75433	-8.62403	562.00989	616.54297	132.50507	564.89685	605.65363	
2633	26.320	-236.64925	63.50446	-86.11553	232.97871	15.26313	-131.86098	-204.93767	35.33086	350.99457	259.22665	36.48820	310.38748	1.31783	813.79236	-293.58496	-81.79991	555.03534	-263.92004	74.21713	558.30951	-278.34241	-7.78173	562.62274	617.03729	133.03682	565.83179	606.15662	
2634	26.330	-241.00693	75.24123	-91.68973	232.92259	15.10380	-132.12042	-205.15125	35.48789	350.94043	259.13779	36.62096	310.26685	1.65075	813.34229	-293.50592	-81.38353	554.48010	-263.46906	74.37792	558.09369	-278.04675	-7.21809	563.18597	617.45215	133.59799	566.58716	606.45166	
2635	26.340	-242.86768	87.27428	-97.11150	232.88969	15.09224	-132.00261	-205.30626	35.84908	350.76376	259.13226	36.56780	310.19156	2.18419	813.12885	-293.09167	-81.17620	554.26849	-263.00497	74.81158	557.89508	-277.49258	-6.82458	563.54224	617.92749	134.30589	566.87964	607.06384	
2636	26.350	-243.35843	97.76706	-99.85533	232.91573	15.12738	-131.83778	-205.37596	36.08916	350.65543	258.95605	36.59692	310.18063	2.54784	813.02551	-292.71698	-80.68681	554.12366	-262.52341	75.10513	557.78674	-277.20203	-6.35594	563.82843	618.32050	134.49773	566.98688	607.44666	
2637	26.360	-243.38084	106.95171	-99.86829	232.93552	15.07854	-131.76097	-205.40396	36.18765	350.57541	258.89264	36.73568	310.00842	2.45699	813.00427	-292.58353	-80.37213	553.89093	-262.13907	75.48830	557.78864	-276.82394	-6.10910	564.04352	618.47235	134.45680	567.51337	607.64063	
2638	26.370	-244.51726	115.99519	-99.63157	232.96219	15.07179	-131.60817	-205.56366	36.23343	350.53442	258.80362	36.95827	310.11810	2.36595	812.89886	-292.43387	-80.08534	553.68628	-261.98703	75.78065	557.71350	-276.56064	-5.85250	564.22803	618.75244	134.80020	567.84637	607.91650	
2639	26.380	-247.44473	125.38873	-100.04572	232.72629	15.12508	-131.68159	-205.71504	36.42923	350.48456	258.67184	37.05894	310.17725	2.37958	812.62787	-292.30219	-79.68057	553.47070	-261.86859	76.06522	557.54486	-276.32019	-5.72718	564.53723	619.00079	134.36656	568.25238	607.88947	
2640	26.390	-250.84335	133.78969	-101.97532	232.34612	14.80892	-131.76825	-206.00429	36.68898	350.38293	258.45288	37.18545	310.07990	2.77839	812.36920	-292.29245	-79.29032	553.20721	-261.77112	76.54759	557.22815	-276.04871	-5.60146	564.80914	619.09491	134.66351	568.72388	608.30524	
2641	26.400	-255.04941	140.48993	-104.79848	231.83244	14.66017	-131.97867	-206.23354	36.82470	350.38339	258.34625	37.27337	310.03110	3.23070	812.03839	-292.34311	-78.97654	553.01331	-261.46762	76.84813	556.96741	-275.85303	-5.36395	565.10468	619.38562	135.69429	568.73291	608.62903	
2642	26.410	-257.63876	144.81752	-108.70229	231.69286	14.62204	-131.91725	-206.39693	36.95188	350.34238	258.21774	37.25323	309.96683	3.60481	812.01672	-292.34149	-78.86290	553.07513	-261.22202	77.20280	556.40485	-275.03619	-5.10702	565.33752	619.59247	135.88776	568.91516	608.84509	
2643	26.420	-259.87399	145.88335	-110.48651	231.64896	14.63021	-131.88272	-206.56277	37.02099	350.24142	258.11520	37.38812	309.91602	4.06363	812.11560	-292.08014	-78.79159	553.17279	-260.92490	77.36469	556.47614	-274.87219	-4.70900	565.66559	619.95007	136.17201	569.25873	609.12128	
2644	26.430	-262.24170	145.86453	-112.56406	231.42943	14.57492	-132.10139	-206.61963	37.14868	350.11111	257.92184	37.51423	309.77380	4.08450	812.24683	-291.93970	-78.51587	553.16052	-260.76877	77.64989	556.55414	-274.69345	-4.58910	565.90918	620.06573	136.27267	569.68158	609.28455	
2645	26.440	-264.61707	145.45384	-114.04731	231.34848	14.52161	-132.17113	-206.67809	37.28257	349.97479	257.78287	37.61977	309.68387	3.79580	812.18188	-291.87912	-78.23280	552.97736	-260.70905	77.88394	556.73529	-274.75980	-4.67644	566.18304	620.16571	136.22725	570.09290	609.36761	
2646	26.450	-266.78897	144.29616	-115.94093	231.25352	14.35326	-132.26538	-206.90114	37.39242	349.80081	257.70081	37.68805	309.60764	3.32492	812.03601	-291.95621	-78.08624	552.72192	-260.56342	78.13264	556.64337	-274.64801	-4.67202	566.41846	620.23297	136.22855	570.44891	609.46478	
2647	26.460	-269.10382	144.37717	-117.45330	231.32504	14.26620	-132.16360	-207.08069	37.50006	349.61682	257.62671	37.71990	309.57236	3.24801	811.91321	-292.05399	-78.02340	552.45154	-260.46652	78.27566	556.49921	-274.56891	-4.54981	566.73535	620.32147	136.29259	570.81470	609.53558	
2648	26.470	-272.67838	145.03978	-118.77081	230.99342	14.20658	-132.37274	-207.26035	37.73161	349.50052	257.48798	37.85997	309.45972	3.36536	811.65533	-292.32486	-77.87792	552.18030	-260.56662	78.37087	556.28625	-274.47311	-4.53100	567.00012	620.35803	136.34029	571.20306	609.53772	
2649	26.480	-275.97369	145.75250	-120.83684	230.96581	14.08058	-132.42551	-207.42137	37.92744	349.38513	257.20782	37.96204	309.35669	3.56473	811.36841	-292.46912	-77.78838	551.86237	-260.53314	78.37929	556.06360	-274.46152	-4.65363	567.45715	620.27148	136.39421	571.69324	609.55945	
2650	26.490	-278.82880	146.26424	-122.38255	230.78923	14.07474	-132.38380	-207.58733	38.11636	349.26175	257.02469	37.96518	309.48788	3.52574	811.14435	-292.57687	-77.72739	551.64624	-260.51816	78.37582	555.85876	-274.50372	-4.53596	567.90179	620.23633	136.44031	572.12152	609.43927	
2651	26.500	-281.03519	145.72505	-124.53706	230.66057	13.98845	-132.42812	-207.66298	38.31261	349.12173	256.80548	38.16869	309.17404	3.38065	810.85663	-292.84238	-77.78465	551.48639	-260.64111	78.33709	555.66559	-274.59604	-4.44557	568.12476	620.21063	136.38106	572.44232	609.44836	
2652	26.510	-283.53128	142.96454	-126.60822	230.25761	13.97745	-132.76688	-207.70662	38.37507	349.12122	256.73477	38.22362	309.06979	3.37778	810.59875	-292.98724	-77.88747	551.40192	-260.69824	78.25423	555.44684	-274.67374	-4.08495	568.19843	620.09186	136.41014	572.69360	609.38367	
2653	26.520	-286.54303	137.50793	-128.82050	230.36432	14.01196	-132.75673	-207.75909	38.45092	349.13397	256.73535	38.30462	309.07428	3.40965	810.44592	-293.06775	-77.96468	551.26343	-260.77707	78.12346	555.27686	-274.75317	-4.06396	568.57251	620.01019	136.65311	573.04218	609.32898	
